<svg width="97" height="96" viewBox="0 0 97 96" fill="none" xmlns="http://www.w3.org/2000/svg">
<path d="M74.1784 27H21.9784C19.9902 27 18.3784 28.6118 18.3784 30.6V65.4C18.3784 67.3882 19.9902 69 21.9784 69H74.1784C76.1666 69 77.7784 67.3882 77.7784 65.4V30.6C77.7784 28.6118 76.1666 27 74.1784 27Z" stroke="black" stroke-width="0.96" stroke-linecap="round" stroke-linejoin="round"/>
<mask id="path-2-inside-1_0_619" fill="white">
<path d="M77.7784 34.8V35.28C78.0435 35.28 78.2584 35.0651 78.2584 34.8H77.7784ZM18.3784 34.8H17.8984C17.8984 35.0651 18.1133 35.28 18.3784 35.28V34.8ZM21.9784 27.48H74.1784V26.52H21.9784V27.48ZM77.2984 30.6V34.8H78.2584V30.6H77.2984ZM77.7784 34.32H18.3784V35.28H77.7784V34.32ZM18.8584 34.8V30.6H17.8984V34.8H18.8584ZM74.1784 27.48C75.9015 27.48 77.2984 28.8769 77.2984 30.6H78.2584C78.2584 28.3467 76.4317 26.52 74.1784 26.52V27.48ZM21.9784 26.52C19.7251 26.52 17.8984 28.3467 17.8984 30.6H18.8584C18.8584 28.8769 20.2553 27.48 21.9784 27.48V26.52Z"/>
</mask>
<path d="M77.7784 34.8V35.28C78.0435 35.28 78.2584 35.0651 78.2584 34.8H77.7784ZM18.3784 34.8H17.8984C17.8984 35.0651 18.1133 35.28 18.3784 35.28V34.8ZM21.9784 27.48H74.1784V26.52H21.9784V27.48ZM77.2984 30.6V34.8H78.2584V30.6H77.2984ZM77.7784 34.32H18.3784V35.28H77.7784V34.32ZM18.8584 34.8V30.6H17.8984V34.8H18.8584ZM74.1784 27.48C75.9015 27.48 77.2984 28.8769 77.2984 30.6H78.2584C78.2584 28.3467 76.4317 26.52 74.1784 26.52V27.48ZM21.9784 26.52C19.7251 26.52 17.8984 28.3467 17.8984 30.6H18.8584C18.8584 28.8769 20.2553 27.48 21.9784 27.48V26.52Z" fill="#EA3326"/>
<path d="M74.6784 27.48V26.52H73.6784V27.48H74.6784ZM21.4784 26.52V27.48H22.4784V26.52H21.4784ZM78.2584 30.1H77.2984V31.1H78.2584V30.1ZM18.8584 30.1H17.8984V31.1H18.8584V30.1ZM77.7784 34.8V33.8H76.7784V34.8H77.7784ZM18.3784 34.8H19.3784V33.8H18.3784V34.8ZM77.2984 34.8H76.2984V35.8H77.2984V34.8ZM77.7784 34.32H78.7784V33.32H77.7784V34.32ZM18.3784 34.32V33.32H17.3784V34.32H18.3784ZM18.8584 34.8V35.8H19.8584V34.8H18.8584ZM76.7784 34.8V35.28H78.7784V34.8H76.7784ZM77.7784 36.28C78.5958 36.28 79.2584 35.6174 79.2584 34.8H77.2584C77.2584 34.5128 77.4912 34.28 77.7784 34.28V36.28ZM78.2584 33.8H77.7784V35.8H78.2584V33.8ZM18.3784 33.8H17.8984V35.8H18.3784V33.8ZM16.8984 34.8C16.8984 35.6174 17.5611 36.28 18.3784 36.28V34.28C18.6656 34.28 18.8984 34.5128 18.8984 34.8H16.8984ZM19.3784 35.28V34.8H17.3784V35.28H19.3784ZM21.9784 28.48H74.1784V26.48H21.9784V28.48ZM74.1784 25.52H21.9784V27.52H74.1784V25.52ZM76.2984 30.6V34.8H78.2984V30.6H76.2984ZM77.2984 35.8H78.2584V33.8H77.2984V35.8ZM79.2584 34.8V30.6H77.2584V34.8H79.2584ZM77.7784 33.32H18.3784V35.32H77.7784V33.32ZM17.3784 34.32V35.28H19.3784V34.32H17.3784ZM18.3784 36.28H77.7784V34.28H18.3784V36.28ZM78.7784 35.28V34.32H76.7784V35.28H78.7784ZM19.8584 34.8V30.6H17.8584V34.8H19.8584ZM16.8984 30.6V34.8H18.8984V30.6H16.8984ZM17.8984 35.8H18.8584V33.8H17.8984V35.8ZM74.1784 28.48C75.3493 28.48 76.2984 29.4292 76.2984 30.6H78.2984C78.2984 28.3246 76.4538 26.48 74.1784 26.48V28.48ZM79.2584 30.6C79.2584 27.7944 76.984 25.52 74.1784 25.52V27.52C75.8795 27.52 77.2584 28.899 77.2584 30.6H79.2584ZM21.9784 25.52C19.1729 25.52 16.8984 27.7944 16.8984 30.6H18.8984C18.8984 28.899 20.2774 27.52 21.9784 27.52V25.52ZM19.8584 30.6C19.8584 29.4292 20.8076 28.48 21.9784 28.48V26.48C19.7031 26.48 17.8584 28.3246 17.8584 30.6H19.8584Z" fill="black" mask="url(#path-2-inside-1_0_619)"/>
<path d="M72.6782 32.4C73.5066 32.4 74.1782 31.7285 74.1782 30.9C74.1782 30.0716 73.5066 29.4 72.6782 29.4C71.8498 29.4 71.1782 30.0716 71.1782 30.9C71.1782 31.7285 71.8498 32.4 72.6782 32.4Z" stroke="black" stroke-width="0.96" stroke-linecap="round" stroke-linejoin="round"/>
<path d="M66.6782 32.4C67.5066 32.4 68.1782 31.7285 68.1782 30.9C68.1782 30.0716 67.5066 29.4 66.6782 29.4C65.8498 29.4 65.1782 30.0716 65.1782 30.9C65.1782 31.7285 65.8498 32.4 66.6782 32.4Z" stroke="black" stroke-width="0.96" stroke-linecap="round" stroke-linejoin="round"/>
<path d="M60.6782 32.4C61.5066 32.4 62.1782 31.7285 62.1782 30.9C62.1782 30.0716 61.5066 29.4 60.6782 29.4C59.8498 29.4 59.1782 30.0716 59.1782 30.9C59.1782 31.7285 59.8498 32.4 60.6782 32.4Z" stroke="black" stroke-width="0.96" stroke-linecap="round" stroke-linejoin="round"/>
<path fill-rule="evenodd" clip-rule="evenodd" d="M37.8783 51.3C37.8783 48.4834 35.5949 46.2001 32.7783 46.2001C32.1156 46.2001 31.5783 45.6628 31.5783 45C31.5783 44.3373 32.1156 43.8 32.7783 43.8C36.9204 43.8 40.2783 47.1579 40.2783 51.3C40.2783 55.4422 36.9204 58.8 32.7783 58.8C28.6362 58.8 25.2783 55.4422 25.2783 51.3C25.2783 50.6373 25.8156 50.1 26.4783 50.1C27.141 50.1 27.6783 50.6373 27.6783 51.3C27.6783 54.1167 29.9616 56.4001 32.7783 56.4001C35.5949 56.4001 37.8783 54.1167 37.8783 51.3Z" fill="#EA3326"/>
<path d="M68.4785 50.4H45.6785C45.0158 50.4 44.4785 50.9373 44.4785 51.6C44.4785 52.2628 45.0158 52.8 45.6785 52.8H68.4785C69.1413 52.8 69.6785 52.2628 69.6785 51.6C69.6785 50.9373 69.1413 50.4 68.4785 50.4Z" fill="#EA3326"/>
<path d="M49.2785 54.6H45.6785C45.0158 54.6 44.4785 55.1372 44.4785 55.8C44.4785 56.4627 45.0158 57 45.6785 57H49.2785C49.9413 57 50.4785 56.4627 50.4785 55.8C50.4785 55.1372 49.9413 54.6 49.2785 54.6Z" fill="#EA3326"/>
<path d="M68.4785 46.2H45.6785C45.0158 46.2 44.4785 46.7372 44.4785 47.4C44.4785 48.0627 45.0158 48.5999 45.6785 48.5999H68.4785C69.1413 48.5999 69.6785 48.0627 69.6785 47.4C69.6785 46.7372 69.1413 46.2 68.4785 46.2Z" fill="#EA3326"/>
</svg>
