<svg width="97" height="96" viewBox="0 0 97 96" fill="none" xmlns="http://www.w3.org/2000/svg">
<path d="M25.9573 62.6765C37.7581 59.7865 45.7257 67.1922 48.2343 71.7078V35.8838C42.2135 22.8788 30.8743 23.4407 25.9573 25.3473V62.6765Z" stroke="#001F5C" stroke-width="0.963333" stroke-linecap="round" stroke-linejoin="round"/>
<path d="M48.2341 35.8838C53.1511 31.9703 65.6343 25.8893 76.231 32.8734C76.231 41.3026 76.231 60.8703 76.231 69.6006C73.2206 66.5901 63.7077 62.6164 48.5352 72.0089" stroke="#001F5C" stroke-width="0.963333" stroke-linecap="round" stroke-linejoin="round"/>
<path d="M47.6321 72.009C43.1164 68.1958 31.8575 62.797 20.5383 69.2995C20.5383 60.8704 20.5383 41.3027 20.5383 32.5725C21.4414 31.9704 23.7896 30.706 25.9571 30.4652" stroke="#001F5C" stroke-width="0.963333" stroke-linecap="round" stroke-linejoin="round"/>
<path d="M20.2375 35.2819L16.926 36.185V72.0089H47.9333" stroke="#001F5C" stroke-width="0.963333" stroke-linecap="round" stroke-linejoin="round"/>
<path d="M46.1272 72.009H80.1449V35.884C79.6432 35.4826 78.2182 34.6798 76.5324 34.6798" stroke="#001F5C" stroke-width="0.963333" stroke-linecap="round" stroke-linejoin="round"/>
<path d="M57.4659 41.4839L57.4657 29.4792C61.3164 27.4483 65.912 27.2462 69.9139 28.96V41.508C69.9139 42.0033 69.3491 42.2868 68.952 41.9907L63.5872 37.9913L58.4355 41.9608C58.0396 42.2658 57.4659 41.9836 57.4659 41.4839Z" fill="#EA3326"/>
</svg>
