<svg width="97" height="96" viewBox="0 0 97 96" fill="none" xmlns="http://www.w3.org/2000/svg">
<path d="M35.1585 72.7495C35.1585 73.9869 34.1452 75.0001 32.9088 75.0001H23.9092C22.6718 75.0001 21.6586 73.9869 21.6586 72.7495V63.7499C21.6586 62.5125 22.6718 61.5002 23.9092 61.5002H32.9088C34.1453 61.5002 35.1585 62.5125 35.1585 63.7499V72.7495Z" stroke="#001F5C" stroke-width="0.96" stroke-linecap="round" stroke-linejoin="round"/>
<path d="M53.158 72.7495C53.158 73.9869 52.1447 75.0001 50.9083 75.0001H41.9087C40.6713 75.0001 39.6581 73.9869 39.6581 72.7495V63.7499C39.6581 62.5125 40.6714 61.5002 41.9087 61.5002H50.9083C52.1448 61.5002 53.158 62.5125 53.158 63.7499V72.7495Z" stroke="#001F5C" stroke-width="0.96" stroke-linecap="round" stroke-linejoin="round"/>
<path d="M71.157 72.7495C71.157 73.9869 70.1438 75.0001 68.9073 75.0001H59.9073C58.6699 75.0001 57.6566 73.9869 57.6566 72.7495L57.6571 63.7499C57.6571 62.5125 58.6704 61.5002 59.9077 61.5002H68.9073C70.1438 61.5002 71.157 62.5125 71.157 63.7499V72.7495Z" stroke="#001F5C" stroke-width="0.96" stroke-linecap="round" stroke-linejoin="round"/>
<path d="M35.1585 54.7499C35.1585 55.9873 34.1452 56.9995 32.9088 56.9995H23.9092C22.6718 56.9995 21.6586 55.9872 21.6586 54.7499V45.7503C21.6586 44.5129 22.6718 43.5006 23.9092 43.5006H32.9088C34.1453 43.5006 35.1585 44.5129 35.1585 45.7503V54.7499Z" stroke="#001F5C" stroke-width="0.96" stroke-linecap="round" stroke-linejoin="round"/>
<path d="M53.158 54.7499C53.158 55.9873 52.1447 56.9995 50.9083 56.9995H41.9087C40.6713 56.9995 39.6581 55.9872 39.6581 54.7499V45.7503C39.6581 44.5129 40.6714 43.5006 41.9087 43.5006H50.9083C52.1448 43.5006 53.158 44.5129 53.158 45.7503V54.7499Z" stroke="#001F5C" stroke-width="0.96" stroke-linecap="round" stroke-linejoin="round"/>
<path d="M65.0848 58.2093C63.9402 58.6811 62.6176 58.1344 62.1454 56.9917L58.7003 48.6775C58.2285 47.5353 58.7751 46.2122 59.9179 45.7381L68.2333 42.292C69.3756 41.8174 70.6977 42.3668 71.1709 43.5096L74.616 51.826C75.0878 52.9683 74.5411 54.2904 73.3984 54.7636L65.0848 58.2093Z" stroke="#001F5C" stroke-width="0.96" stroke-linecap="round" stroke-linejoin="round"/>
<path d="M35.1585 36.7506C35.1585 37.988 34.1452 39.0003 32.9088 39.0003H23.9092C22.6718 39.0003 21.6586 37.988 21.6586 36.7506V27.7505C21.6586 26.5131 22.6718 25.5009 23.9092 25.5009H32.9088C34.1453 25.5009 35.1585 26.5132 35.1585 27.7505V36.7506Z" stroke="#001F5C" stroke-width="0.96" stroke-linecap="round" stroke-linejoin="round"/>
<path d="M50.922 38.9912C50.4493 40.1335 49.1244 40.6829 47.9825 40.2088L39.6676 36.7637C38.5248 36.291 37.9754 34.9661 38.4499 33.8242L41.8931 25.5101C42.3677 24.3679 43.6908 23.8179 44.8326 24.2925L53.149 27.7376C54.2913 28.2103 54.8384 29.5353 54.3662 30.6771L50.922 38.9912Z" stroke="#001F5C" stroke-width="0.96" stroke-linecap="round" stroke-linejoin="round"/>
<path d="M75.0024 28.0213C75.8772 28.8961 75.8772 30.3285 75.0024 31.2032L68.639 37.5685C67.7647 38.4433 66.3319 38.4433 65.4575 37.5685L59.0937 31.2032C58.2193 30.3284 58.2193 28.896 59.0937 28.0213L65.4575 21.6556C66.3319 20.7813 67.7647 20.7813 68.639 21.6556L75.0024 28.0213Z" fill="#EA3326"/>
</svg>
